<?xml version="1.0" encoding="UTF-8" standalone="no"?>
<!DOCTYPE svg PUBLIC "-//W3C//DTD SVG 1.1//EN"
 "http://www.w3.org/Graphics/SVG/1.1/DTD/svg11.dtd">
<!-- Generated by graphviz version 2.43.0 (0)
 -->
<!-- Title: %3 Pages: 1 -->
<svg width="346pt" height="264pt"
 viewBox="0.00 0.00 346.00 264.00" xmlns="http://www.w3.org/2000/svg" xmlns:xlink="http://www.w3.org/1999/xlink">
<g id="graph0" class="graph" transform="scale(1 1) rotate(0) translate(4 260)">
<title>%3</title>
<polygon fill="white" stroke="transparent" points="-4,4 -4,-260 342,-260 342,4 -4,4"/>
<!-- 140669449239328 -->
<g id="node1" class="node">
<title>140669449239328</title>
<path fill="lightgray" stroke="lightgray" d="M141,-219.5C141,-219.5 185,-219.5 185,-219.5 191,-219.5 197,-225.5 197,-231.5 197,-231.5 197,-243.5 197,-243.5 197,-249.5 191,-255.5 185,-255.5 185,-255.5 141,-255.5 141,-255.5 135,-255.5 129,-249.5 129,-243.5 129,-243.5 129,-231.5 129,-231.5 129,-225.5 135,-219.5 141,-219.5"/>
<text text-anchor="middle" x="139.5" y="-233.8" font-family="Times,serif" font-size="14.00"> </text>
<polyline fill="none" stroke="lightgray" points="150,-219.5 150,-255.5 "/>
<text text-anchor="middle" x="163" y="-233.8" font-family="Times,serif" font-size="14.00">3</text>
<polyline fill="none" stroke="lightgray" points="176,-219.5 176,-255.5 "/>
<text text-anchor="middle" x="186.5" y="-233.8" font-family="Times,serif" font-size="14.00"> </text>
</g>
<!-- 140669449239280 -->
<g id="node2" class="node">
<title>140669449239280</title>
<path fill="lightgray" stroke="lightgray" d="M74,-146.5C74,-146.5 118,-146.5 118,-146.5 124,-146.5 130,-152.5 130,-158.5 130,-158.5 130,-170.5 130,-170.5 130,-176.5 124,-182.5 118,-182.5 118,-182.5 74,-182.5 74,-182.5 68,-182.5 62,-176.5 62,-170.5 62,-170.5 62,-158.5 62,-158.5 62,-152.5 68,-146.5 74,-146.5"/>
<text text-anchor="middle" x="72.5" y="-160.8" font-family="Times,serif" font-size="14.00"> </text>
<polyline fill="none" stroke="lightgray" points="83,-146.5 83,-182.5 "/>
<text text-anchor="middle" x="96" y="-160.8" font-family="Times,serif" font-size="14.00">9</text>
<polyline fill="none" stroke="lightgray" points="109,-146.5 109,-182.5 "/>
<text text-anchor="middle" x="119.5" y="-160.8" font-family="Times,serif" font-size="14.00"> </text>
</g>
<!-- 140669449239328&#45;&gt;140669449239280 -->
<g id="edge1" class="edge">
<title>140669449239328:l&#45;&gt;140669449239280:v</title>
<path fill="none" stroke="black" d="M139,-219C139,-198.36 109.51,-204.31 99.37,-192.81"/>
<polygon fill="black" stroke="black" points="102.56,-191.32 96,-183 95.94,-193.59 102.56,-191.32"/>
</g>
<!-- 140669448465328 -->
<g id="node3" class="node">
<title>140669448465328</title>
<path fill="lightgray" stroke="lightgray" d="M220,-146.5C220,-146.5 264,-146.5 264,-146.5 270,-146.5 276,-152.5 276,-158.5 276,-158.5 276,-170.5 276,-170.5 276,-176.5 270,-182.5 264,-182.5 264,-182.5 220,-182.5 220,-182.5 214,-182.5 208,-176.5 208,-170.5 208,-170.5 208,-158.5 208,-158.5 208,-152.5 214,-146.5 220,-146.5"/>
<text text-anchor="middle" x="218.5" y="-160.8" font-family="Times,serif" font-size="14.00"> </text>
<polyline fill="none" stroke="lightgray" points="229,-146.5 229,-182.5 "/>
<text text-anchor="middle" x="242" y="-160.8" font-family="Times,serif" font-size="14.00">8</text>
<polyline fill="none" stroke="lightgray" points="255,-146.5 255,-182.5 "/>
<text text-anchor="middle" x="265.5" y="-160.8" font-family="Times,serif" font-size="14.00"> </text>
</g>
<!-- 140669449239328&#45;&gt;140669448465328 -->
<g id="edge2" class="edge">
<title>140669449239328:r&#45;&gt;140669448465328:v</title>
<path fill="none" stroke="black" d="M187,-219C187,-194.12 226.88,-206.69 238.72,-192.93"/>
<polygon fill="black" stroke="black" points="242.19,-193.59 242,-183 235.54,-191.4 242.19,-193.59"/>
</g>
<!-- 140669448465376 -->
<g id="node4" class="node">
<title>140669448465376</title>
<path fill="lightgray" stroke="lightgray" d="M12,-73.5C12,-73.5 56,-73.5 56,-73.5 62,-73.5 68,-79.5 68,-85.5 68,-85.5 68,-97.5 68,-97.5 68,-103.5 62,-109.5 56,-109.5 56,-109.5 12,-109.5 12,-109.5 6,-109.5 0,-103.5 0,-97.5 0,-97.5 0,-85.5 0,-85.5 0,-79.5 6,-73.5 12,-73.5"/>
<text text-anchor="middle" x="10.5" y="-87.8" font-family="Times,serif" font-size="14.00"> </text>
<polyline fill="none" stroke="lightgray" points="21,-73.5 21,-109.5 "/>
<text text-anchor="middle" x="34" y="-87.8" font-family="Times,serif" font-size="14.00">4</text>
<polyline fill="none" stroke="lightgray" points="47,-73.5 47,-109.5 "/>
<text text-anchor="middle" x="57.5" y="-87.8" font-family="Times,serif" font-size="14.00"> </text>
</g>
<!-- 140669449239280&#45;&gt;140669448465376 -->
<g id="edge3" class="edge">
<title>140669449239280:l&#45;&gt;140669448465376:v</title>
<path fill="none" stroke="black" d="M72,-146C72,-126.92 46.43,-130.57 37.24,-119.66"/>
<polygon fill="black" stroke="black" points="40.5,-118.37 34,-110 33.86,-120.59 40.5,-118.37"/>
</g>
<!-- 140669448465568 -->
<g id="node5" class="node">
<title>140669448465568</title>
<path fill="lightgray" stroke="lightgray" d="M98,-73.5C98,-73.5 142,-73.5 142,-73.5 148,-73.5 154,-79.5 154,-85.5 154,-85.5 154,-97.5 154,-97.5 154,-103.5 148,-109.5 142,-109.5 142,-109.5 98,-109.5 98,-109.5 92,-109.5 86,-103.5 86,-97.5 86,-97.5 86,-85.5 86,-85.5 86,-79.5 92,-73.5 98,-73.5"/>
<text text-anchor="middle" x="96.5" y="-87.8" font-family="Times,serif" font-size="14.00"> </text>
<polyline fill="none" stroke="lightgray" points="107,-73.5 107,-109.5 "/>
<text text-anchor="middle" x="120" y="-87.8" font-family="Times,serif" font-size="14.00">0</text>
<polyline fill="none" stroke="lightgray" points="133,-73.5 133,-109.5 "/>
<text text-anchor="middle" x="143.5" y="-87.8" font-family="Times,serif" font-size="14.00"> </text>
</g>
<!-- 140669449239280&#45;&gt;140669448465568 -->
<g id="edge4" class="edge">
<title>140669449239280:r&#45;&gt;140669448465568:v</title>
<path fill="none" stroke="black" d="M120,-146C120,-134 120,-128.75 120,-120.12"/>
<polygon fill="black" stroke="black" points="123.5,-120 120,-110 116.5,-120 123.5,-120"/>
</g>
<!-- 140669448464896 -->
<g id="node6" class="node">
<title>140669448464896</title>
<path fill="lightgray" stroke="lightgray" d="M196,-73.5C196,-73.5 240,-73.5 240,-73.5 246,-73.5 252,-79.5 252,-85.5 252,-85.5 252,-97.5 252,-97.5 252,-103.5 246,-109.5 240,-109.5 240,-109.5 196,-109.5 196,-109.5 190,-109.5 184,-103.5 184,-97.5 184,-97.5 184,-85.5 184,-85.5 184,-79.5 190,-73.5 196,-73.5"/>
<text text-anchor="middle" x="194.5" y="-87.8" font-family="Times,serif" font-size="14.00"> </text>
<polyline fill="none" stroke="lightgray" points="205,-73.5 205,-109.5 "/>
<text text-anchor="middle" x="218" y="-87.8" font-family="Times,serif" font-size="14.00">1</text>
<polyline fill="none" stroke="lightgray" points="231,-73.5 231,-109.5 "/>
<text text-anchor="middle" x="241.5" y="-87.8" font-family="Times,serif" font-size="14.00"> </text>
</g>
<!-- 140669448465328&#45;&gt;140669448464896 -->
<g id="edge5" class="edge">
<title>140669448465328:l&#45;&gt;140669448464896:v</title>
<path fill="none" stroke="black" d="M218,-146C218,-134 218,-128.75 218,-120.12"/>
<polygon fill="black" stroke="black" points="221.5,-120 218,-110 214.5,-120 221.5,-120"/>
</g>
<!-- 140669448464992 -->
<g id="node7" class="node">
<title>140669448464992</title>
<path fill="lightgray" stroke="lightgray" d="M282,-73.5C282,-73.5 326,-73.5 326,-73.5 332,-73.5 338,-79.5 338,-85.5 338,-85.5 338,-97.5 338,-97.5 338,-103.5 332,-109.5 326,-109.5 326,-109.5 282,-109.5 282,-109.5 276,-109.5 270,-103.5 270,-97.5 270,-97.5 270,-85.5 270,-85.5 270,-79.5 276,-73.5 282,-73.5"/>
<text text-anchor="middle" x="280.5" y="-87.8" font-family="Times,serif" font-size="14.00"> </text>
<polyline fill="none" stroke="lightgray" points="291,-73.5 291,-109.5 "/>
<text text-anchor="middle" x="304" y="-87.8" font-family="Times,serif" font-size="14.00">7</text>
<polyline fill="none" stroke="lightgray" points="317,-73.5 317,-109.5 "/>
<text text-anchor="middle" x="327.5" y="-87.8" font-family="Times,serif" font-size="14.00"> </text>
</g>
<!-- 140669448465328&#45;&gt;140669448464992 -->
<g id="edge6" class="edge">
<title>140669448465328:r&#45;&gt;140669448464992:v</title>
<path fill="none" stroke="black" d="M266,-146C266,-126.92 291.57,-130.57 300.76,-119.66"/>
<polygon fill="black" stroke="black" points="304.14,-120.59 304,-110 297.5,-118.37 304.14,-120.59"/>
</g>
<!-- 140669448465280 -->
<g id="node8" class="node">
<title>140669448465280</title>
<path fill="lightgray" stroke="lightgray" d="M110,-0.5C110,-0.5 154,-0.5 154,-0.5 160,-0.5 166,-6.5 166,-12.5 166,-12.5 166,-24.5 166,-24.5 166,-30.5 160,-36.5 154,-36.5 154,-36.5 110,-36.5 110,-36.5 104,-36.5 98,-30.5 98,-24.5 98,-24.5 98,-12.5 98,-12.5 98,-6.5 104,-0.5 110,-0.5"/>
<text text-anchor="middle" x="108.5" y="-14.8" font-family="Times,serif" font-size="14.00"> </text>
<polyline fill="none" stroke="lightgray" points="119,-0.5 119,-36.5 "/>
<text text-anchor="middle" x="132" y="-14.8" font-family="Times,serif" font-size="14.00">2</text>
<polyline fill="none" stroke="lightgray" points="145,-0.5 145,-36.5 "/>
<text text-anchor="middle" x="155.5" y="-14.8" font-family="Times,serif" font-size="14.00"> </text>
</g>
<!-- 140669448465568&#45;&gt;140669448465280 -->
<g id="edge7" class="edge">
<title>140669448465568:r&#45;&gt;140669448465280:v</title>
<path fill="none" stroke="black" d="M144,-73C144,-60.22 137.11,-55.82 133.77,-47.1"/>
<polygon fill="black" stroke="black" points="137.17,-46.25 132,-37 130.28,-47.45 137.17,-46.25"/>
</g>
<!-- 140669466658128 -->
<g id="node9" class="node">
<title>140669466658128</title>
<path fill="lightgray" stroke="lightgray" d="M196,-0.5C196,-0.5 240,-0.5 240,-0.5 246,-0.5 252,-6.5 252,-12.5 252,-12.5 252,-24.5 252,-24.5 252,-30.5 246,-36.5 240,-36.5 240,-36.5 196,-36.5 196,-36.5 190,-36.5 184,-30.5 184,-24.5 184,-24.5 184,-12.5 184,-12.5 184,-6.5 190,-0.5 196,-0.5"/>
<text text-anchor="middle" x="194.5" y="-14.8" font-family="Times,serif" font-size="14.00"> </text>
<polyline fill="none" stroke="lightgray" points="205,-0.5 205,-36.5 "/>
<text text-anchor="middle" x="218" y="-14.8" font-family="Times,serif" font-size="14.00">5</text>
<polyline fill="none" stroke="lightgray" points="231,-0.5 231,-36.5 "/>
<text text-anchor="middle" x="241.5" y="-14.8" font-family="Times,serif" font-size="14.00"> </text>
</g>
<!-- 140669448464896&#45;&gt;140669466658128 -->
<g id="edge8" class="edge">
<title>140669448464896:l&#45;&gt;140669466658128:v</title>
<path fill="none" stroke="black" d="M194,-73C194,-57.83 208.94,-56.16 215.25,-46.68"/>
<polygon fill="black" stroke="black" points="218.63,-47.58 218,-37 211.9,-45.66 218.63,-47.58"/>
</g>
</g>
</svg>
